<?xml version="1.0" encoding="iso-8859-1"?>
<!-- Generator: Adobe Illustrator 19.0.0, SVG Export Plug-In . SVG Version: 6.00 Build 0)  -->
<svg version="1.1" id="Layer_1" xmlns="http://www.w3.org/2000/svg" xmlns:xlink="http://www.w3.org/1999/xlink" x="0px" y="0px"
	 viewBox="0 0 301.037 301.037" style="enable-background:new 0 0 301.037 301.037;" xml:space="preserve" width="128" height="128">
<linearGradient id="linear-gradient">
		<stop offset="0%" stop-color="#A66CFF"/>
		<stop offset="100%" stop-color="#F7A4A4"/>
</linearGradient>
<g fill="url(#linear-gradient)" stroke="url(#linear-gradient)" stroke-width="1" stroke-linecap="round" stroke-linejoin="round">
	<g>
		<g>
			<rect x="222.519" y="226.469" width="9.75" height="32.63"/>
			<rect x="244.359" y="226.469" width="9.75" height="32.63"/>
			<rect x="265.419" y="226.469" width="9.75" height="32.63"/>
			<rect x="36.097" y="226.469" width="9.75" height="32.63"/>
			<rect x="57.939" y="226.469" width="9.75" height="32.63"/>
			<path d="M110.067,56.691l19.825,14.3l-7.085,23.595c-0.585,1.95,0.13,4.095,1.82,5.33c1.69,1.235,3.965,1.235,5.655,0.065
				l20.67-14.365l20.67,14.365c0.845,0.585,1.82,0.845,2.795,0.845c1.04,0,2.08-0.325,2.99-0.91c1.69-1.3,2.34-3.445,1.69-5.46
				l-7.8-23.53l19.76-14.235c1.69-1.235,2.405-3.38,1.82-5.395c-0.65-2.015-2.47-3.38-4.55-3.445l-24.96-0.715l-7.8-22.88
				c-0.65-1.95-2.47-3.315-4.55-3.315c-2.015,0-3.9,1.235-4.615,3.185l-8.58,23.01l-25.025,0.715
				c-2.145,0.065-3.965,1.43-4.55,3.445S108.377,55.456,110.067,56.691z M141.397,56.821c1.95-0.065,3.705-1.3,4.42-3.185
				l4.94-13.26l4.485,13.13c0.65,1.95,2.47,3.25,4.485,3.315l13.91,0.39l-10.985,7.93c-1.69,1.235-2.405,3.445-1.755,5.46
				l4.29,13.065l-11.44-7.995c-1.69-1.17-3.9-1.17-5.59,0l-11.96,8.32l4.095-13.52c0.585-1.95-0.13-4.095-1.82-5.33l-10.985-7.93
				L141.397,56.821z"/>
			<path d="M300.972,209.376c0-0.065,0-0.13-0.065-0.195c0-0.065,0-0.13-0.065-0.13c-0.065-0.26-0.13-0.52-0.26-0.715v-0.065
				c-0.065-0.13-0.13-0.26-0.195-0.39c-0.065-0.065-0.065-0.13-0.13-0.195c-0.065-0.065-0.065-0.13-0.13-0.195
				c-0.065-0.065-0.065-0.13-0.13-0.13c-0.065-0.065-0.13-0.13-0.195-0.26c-0.065-0.065-0.065-0.065-0.13-0.13
				c-0.065-0.065-0.13-0.13-0.195-0.26l-21.84-21.19c-0.91-0.91-2.145-1.365-3.38-1.365h-70.33v-39.195c0,0,0,0,0-0.065
				c0-0.13,0-0.195,0-0.325c0-0.065,0-0.13,0-0.195c0-0.065,0-0.195-0.065-0.26c0-0.065,0-0.13-0.065-0.195
				c0-0.065,0-0.13-0.065-0.195c-0.065-0.26-0.13-0.52-0.26-0.715c-0.065-0.065-0.065-0.195-0.13-0.26
				c0-0.065-0.065-0.13-0.065-0.195c-0.065-0.065-0.065-0.13-0.13-0.195c-0.065-0.065-0.065-0.13-0.13-0.195
				c-0.065-0.065-0.065-0.13-0.13-0.195c-0.065-0.065-0.13-0.13-0.195-0.195s-0.065-0.065-0.13-0.13s-0.13-0.13-0.195-0.195
				l-21.84-21.19c-0.91-0.91-2.145-1.365-3.38-1.365h-54.21c-1.3,0-2.535,0.52-3.445,1.43l-20.995,21.19l-0.065,0.065
				c-0.065,0.065-0.13,0.195-0.26,0.26c-0.065,0.065-0.065,0.13-0.13,0.195s-0.13,0.13-0.13,0.195
				c-0.065,0.065-0.065,0.13-0.13,0.195c-0.065,0.065-0.065,0.13-0.13,0.195c-0.065,0.065-0.065,0.13-0.13,0.195
				s-0.065,0.13-0.13,0.195c0,0.065-0.065,0.13-0.065,0.195c0,0.065-0.065,0.13-0.065,0.26c0,0.065-0.065,0.13-0.065,0.195
				c0,0.065-0.065,0.13-0.065,0.26c0,0.065,0,0.195-0.065,0.26c0,0.065,0,0.13,0,0.195c0,0.13,0,0.26,0,0.325
				c0,0.065,0,0.065,0,0.13v39.13H25.892c-1.3,0-2.535,0.52-3.445,1.43l-21.06,21.19c-1.04,1.04-1.495,2.47-1.365,3.835
				c0,0.13,0,0.26,0,0.39v64.415c0,2.665,2.21,4.875,4.875,4.875h291.2c2.665,0,4.875-2.21,4.875-4.875l0.065-65.065
				c0-0.13,0-0.195,0-0.325c0-0.065,0-0.13,0-0.195C301.037,209.571,301.037,209.441,300.972,209.376z M272.372,193.841l11.83,11.44
				h-80.145v-11.44H272.372z M125.082,128.581h50.18l11.83,11.44h-73.32L125.082,128.581z M28.037,193.841h69.16v11.505
				l-81.185,0.65L28.037,193.841z M291.222,270.541H9.837v-54.73l92.235-0.78c2.665,0,4.81-2.21,4.81-4.875v-60.385h87.295v60.385
				c0,2.665,2.21,4.875,4.875,4.875h92.17V270.541z"/>
			<rect x="145.689" y="172.649" width="9.75" height="32.63"/>
		</g>
	</g>
</g>
<g>
</g>
<g>
</g>
<g>
</g>
<g>
</g>
<g>
</g>
<g>
</g>
<g>
</g>
<g>
</g>
<g>
</g>
<g>
</g>
<g>
</g>
<g>
</g>
<g>
</g>
<g>
</g>
<g>
</g>
</svg>
